<svg width="20" height="17" viewBox="0 0 20 17" fill="none" xmlns="http://www.w3.org/2000/svg">
<path d="M1.00024 15.2058C2.36842 14.4159 3.92041 14 5.50024 14C7.08007 14 8.63207 14.4159 10.0002 15.2058C11.3684 14.4159 12.9204 14 14.5002 14C16.0801 14 17.6321 14.4159 19.0002 15.2058" stroke="#0B3621" stroke-width="2" stroke-linecap="round" stroke-linejoin="round"/>
<path d="M1.00024 2.20577C2.36842 1.41586 3.92041 1 5.50024 1C7.08007 1 8.63207 1.41586 10.0002 2.20577C11.3684 1.41586 12.9204 1 14.5002 1C16.0801 1 17.6321 1.41586 19.0002 2.20577" stroke="#0B3621" stroke-width="2" stroke-linecap="round" stroke-linejoin="round"/>
<path d="M1.00024 2.20581V15.2058" stroke="#0B3621" stroke-width="2" stroke-linecap="round" stroke-linejoin="round"/>
<path d="M10.0002 2.20581V15.2058" stroke="#0B3621" stroke-width="2" stroke-linecap="round" stroke-linejoin="round"/>
<path d="M19.0002 2.20581V15.2058" stroke="#0B3621" stroke-width="2" stroke-linecap="round" stroke-linejoin="round"/>
</svg>
