<svg width="24" height="20" viewBox="0 0 24 20" fill="none" xmlns="http://www.w3.org/2000/svg">
<path d="M23.2507 9.7479C23.2495 8.72424 22.9696 7.72022 22.4411 6.84354C21.9126 5.96687 21.1554 5.25063 20.2507 4.77165C20.2296 3.77803 19.9054 2.81458 19.3214 2.01042C18.7374 1.20625 17.9216 0.599787 16.9833 0.272289C16.0449 -0.05521 15.0289 -0.0880949 14.0714 0.178041C13.1138 0.444176 12.2605 0.996618 11.6257 1.76134C10.9909 0.996618 10.1376 0.444176 9.18006 0.178041C8.22252 -0.0880949 7.2065 -0.05521 6.26817 0.272289C5.32984 0.599787 4.51401 1.20625 3.93002 2.01042C3.34604 2.81458 3.02178 3.77803 3.00071 4.77165C2.0951 5.24933 1.33703 5.96512 0.808246 6.84188C0.279457 7.71863 0 8.72309 0 9.74696C0 10.7708 0.279457 11.7753 0.808246 12.652C1.33703 13.5288 2.0951 14.2446 3.00071 14.7223C3.02141 15.7161 3.3454 16.6798 3.92925 17.4842C4.5131 18.2887 5.3289 18.8954 6.26732 19.2232C7.20573 19.5509 8.2219 19.5839 9.17962 19.3178C10.1373 19.0518 10.9908 18.4993 11.6257 17.7345C12.2606 18.4993 13.1141 19.0518 14.0718 19.3178C15.0295 19.5839 16.0457 19.5509 16.9841 19.2232C17.9225 18.8954 18.7383 18.2887 19.3222 17.4842C19.906 16.6798 20.23 15.7161 20.2507 14.7223C21.1557 14.2442 21.9133 13.5284 22.4419 12.6519C22.9705 11.7754 23.2501 10.7714 23.2507 9.7479ZM7.87571 17.2479C7.3093 17.2478 6.75811 17.0645 6.30443 16.7254C5.85076 16.3863 5.51894 15.9096 5.35852 15.3663C5.45227 15.3663 5.53571 15.3729 5.62571 15.3729H6.37571C6.67408 15.3729 6.96023 15.2544 7.17121 15.0434C7.38219 14.8324 7.50071 14.5463 7.50071 14.2479C7.50071 13.9495 7.38219 13.6634 7.17121 13.4524C6.96023 13.2414 6.67408 13.1229 6.37571 13.1229H5.62571C4.82915 13.1235 4.05806 12.8422 3.44886 12.329C2.83966 11.8158 2.43163 11.1036 2.29695 10.3185C2.16226 9.53345 2.30961 8.72602 2.71292 8.0391C3.11623 7.35218 3.74951 6.83005 4.50071 6.56509C4.72014 6.4875 4.91011 6.34377 5.04444 6.1537C5.17877 5.96363 5.25083 5.73658 5.25071 5.50384V4.8729C5.25071 4.1767 5.52727 3.50903 6.01956 3.01674C6.51184 2.52446 7.17952 2.2479 7.87571 2.2479C8.5719 2.2479 9.23958 2.52446 9.73187 3.01674C10.2241 3.50903 10.5007 4.1767 10.5007 4.8729V10.5148C10.2856 10.3768 10.0599 10.2561 9.82571 10.1538C9.55221 10.0345 9.24249 10.0287 8.96471 10.1377C8.68692 10.2467 8.46381 10.4616 8.34446 10.7351C8.22511 11.0086 8.2193 11.3183 8.32831 11.5961C8.43732 11.8739 8.65221 12.097 8.92571 12.2163C9.47886 12.4573 9.93212 12.8815 10.2092 13.4175C10.4863 13.9534 10.5702 14.5685 10.447 15.1591C10.3237 15.7498 10.0008 16.2799 9.53246 16.6604C9.06414 17.0408 8.47907 17.2483 7.87571 17.2479ZM17.6257 13.1229H16.8757C16.5773 13.1229 16.2912 13.2414 16.0802 13.4524C15.8692 13.6634 15.7507 13.9495 15.7507 14.2479C15.7507 14.5463 15.8692 14.8324 16.0802 15.0434C16.2912 15.2544 16.5773 15.3729 16.8757 15.3729H17.6257C17.7195 15.3729 17.8038 15.3729 17.8929 15.3663C17.7679 15.7899 17.5382 16.175 17.2248 16.4862C16.9115 16.7973 16.5247 17.0244 16.1003 17.1464C15.6759 17.2684 15.2276 17.2813 14.7968 17.184C14.3661 17.0867 13.9669 16.8823 13.6361 16.5898C13.3053 16.2972 13.0537 15.9259 12.9045 15.5103C12.7553 15.0947 12.7134 14.6482 12.7826 14.212C12.8519 13.7759 13.03 13.3643 13.3005 13.0153C13.5711 12.6663 13.9253 12.3912 14.3304 12.2154C14.6039 12.0961 14.8188 11.8729 14.9278 11.5952C15.0368 11.3174 15.031 11.0077 14.9116 10.7341C14.7923 10.4606 14.5692 10.2458 14.2914 10.1367C14.0136 10.0277 13.7039 10.0336 13.4304 10.1529C13.1962 10.2552 12.9705 10.3759 12.7554 10.5138V4.8729C12.7554 4.1767 13.032 3.50903 13.5242 3.01674C14.0165 2.52446 14.6842 2.2479 15.3804 2.2479C16.0766 2.2479 16.7443 2.52446 17.2366 3.01674C17.7288 3.50903 18.0054 4.1767 18.0054 4.8729V5.50384C18.0053 5.73658 18.0773 5.96363 18.2117 6.1537C18.346 6.34377 18.536 6.4875 18.7554 6.56509C19.51 6.82765 20.1469 7.3494 20.5529 8.03749C20.959 8.72559 21.1077 9.53541 20.9727 10.3229C20.8377 11.1103 20.4277 11.8244 19.8157 12.338C19.2037 12.8515 18.4293 13.1313 17.6304 13.1276L17.6257 13.1229ZM19.1257 8.9979C19.1257 9.29627 19.0072 9.58242 18.7962 9.79339C18.5852 10.0044 18.2991 10.1229 18.0007 10.1229C17.0061 10.1229 16.0523 9.72781 15.3491 9.02455C14.6458 8.32129 14.2507 7.36746 14.2507 6.3729V5.9979C14.2507 5.69953 14.3692 5.41338 14.5802 5.2024C14.7912 4.99142 15.0773 4.8729 15.3757 4.8729C15.6741 4.8729 15.9602 4.99142 16.1712 5.2024C16.3822 5.41338 16.5007 5.69953 16.5007 5.9979V6.3729C16.5007 6.77072 16.6587 7.15225 16.9401 7.43356C17.2214 7.71486 17.6029 7.8729 18.0007 7.8729C18.2991 7.8729 18.5852 7.99142 18.7962 8.2024C19.0072 8.41338 19.1257 8.69953 19.1257 8.9979ZM9.00071 6.3729C9.00071 7.36746 8.60562 8.32129 7.90236 9.02455C7.1991 9.72781 6.24527 10.1229 5.25071 10.1229C4.95234 10.1229 4.66619 10.0044 4.45522 9.79339C4.24424 9.58242 4.12571 9.29627 4.12571 8.9979C4.12571 8.69953 4.24424 8.41338 4.45522 8.2024C4.66619 7.99142 4.95234 7.8729 5.25071 7.8729C5.64854 7.8729 6.03007 7.71486 6.31137 7.43356C6.59268 7.15225 6.75071 6.77072 6.75071 6.3729V5.9979C6.75071 5.69953 6.86924 5.41338 7.08022 5.2024C7.29119 4.99142 7.57734 4.8729 7.87571 4.8729C8.17408 4.8729 8.46023 4.99142 8.67121 5.2024C8.88219 5.41338 9.00071 5.69953 9.00071 5.9979V6.3729Z" fill="#0B3721"/>
</svg>
