<svg width="20" height="23" viewBox="0 0 20 23" fill="none" xmlns="http://www.w3.org/2000/svg">
<path d="M19.0002 14.9979V6.99795C18.9999 6.64722 18.9073 6.30276 18.7318 5.99911C18.5563 5.69546 18.304 5.44331 18.0002 5.26795L11.0002 1.26795C10.6962 1.09241 10.3513 1 10.0002 1C9.64917 1 9.30428 1.09241 9.00024 1.26795L2.00024 5.26795C1.69651 5.44331 1.44422 5.69546 1.26871 5.99911C1.09319 6.30276 1.0006 6.64722 1.00024 6.99795V14.9979C1.0006 15.3487 1.09319 15.6931 1.26871 15.9968C1.44422 16.3004 1.69651 16.5526 2.00024 16.7279L9.00024 20.7279C9.30428 20.9035 9.64917 20.9959 10.0002 20.9959C10.3513 20.9959 10.6962 20.9035 11.0002 20.7279L18.0002 16.7279C18.304 16.5526 18.5563 16.3004 18.7318 15.9968C18.9073 15.6931 18.9999 15.3487 19.0002 14.9979Z" stroke="#0B3621" stroke-width="2" stroke-linecap="round" stroke-linejoin="round"/>
<path d="M5.50024 3.20801L10.0002 5.80801L14.5002 3.20801" stroke="#0B3621" stroke-width="2" stroke-linecap="round" stroke-linejoin="round"/>
<path d="M5.50024 18.788V13.598L1.00024 10.998" stroke="#0B3621" stroke-width="2" stroke-linecap="round" stroke-linejoin="round"/>
<path d="M19.0002 10.998L14.5002 13.598V18.788" stroke="#0B3621" stroke-width="2" stroke-linecap="round" stroke-linejoin="round"/>
<path d="M1.27026 5.95801L10.0003 11.008L18.7303 5.95801" stroke="#0B3621" stroke-width="2" stroke-linecap="round" stroke-linejoin="round"/>
<path d="M10.0002 21.078V10.998" stroke="#0B3621" stroke-width="2" stroke-linecap="round" stroke-linejoin="round"/>
</svg>
