<svg width="22" height="22" viewBox="0 0 22 22" fill="none" xmlns="http://www.w3.org/2000/svg">
<path d="M10.75 15.75C9.0764 15.75 7.61971 17.015 6.86766 18.8812C6.50846 19.7725 7.02389 20.75 7.70877 20.75H13.7912C14.4761 20.75 14.9915 19.7725 14.6323 18.8812C13.8803 17.015 12.4236 15.75 10.75 15.75Z" stroke="#0B3621" stroke-width="1.5" stroke-linecap="round"/>
<path d="M17.25 3.75H18.4522C19.6531 3.75 20.2535 3.75 20.5668 4.12736C20.88 4.50472 20.7498 5.07113 20.4893 6.20395L20.0985 7.90307C19.5109 10.4586 17.3609 12.3588 14.75 12.75" stroke="#0B3621" stroke-width="1.5" stroke-linecap="round" stroke-linejoin="round"/>
<path d="M4.25 3.75H3.04779C1.84692 3.75 1.24649 3.75 0.933241 4.12736C0.619991 4.50472 0.750241 5.07113 1.01075 6.20395L1.40148 7.90307C1.98914 10.4586 4.13912 12.3588 6.75 12.75" stroke="#0B3621" stroke-width="1.5" stroke-linecap="round" stroke-linejoin="round"/>
<path d="M10.75 15.75C13.7708 15.75 16.315 11.0879 17.0797 4.74089C17.2912 2.98558 17.397 2.10793 16.8368 1.42896C16.2767 0.75 15.3723 0.75 13.5634 0.75H7.93658C6.12775 0.75 5.22333 0.75 4.66317 1.42896C4.10301 2.10793 4.20875 2.98558 4.42025 4.74089C5.185 11.0879 7.72923 15.75 10.75 15.75Z" stroke="#0B3621" stroke-width="1.5" stroke-linecap="round"/>
</svg>
