<svg width="17" height="20" viewBox="0 0 17 20" fill="none" xmlns="http://www.w3.org/2000/svg">
<path d="M11 1V5C11 5.26522 11.1054 5.51957 11.2929 5.70711C11.4804 5.89464 11.7348 6 12 6H16" stroke="#0B3621" stroke-width="2" stroke-linecap="round" stroke-linejoin="round"/>
<path d="M14 15H7C6.46957 15 5.96086 14.7893 5.58579 14.4142C5.21071 14.0391 5 13.5304 5 13V3C5 2.46957 5.21071 1.96086 5.58579 1.58579C5.96086 1.21071 6.46957 1 7 1H11L16 6V13C16 13.5304 15.7893 14.0391 15.4142 14.4142C15.0391 14.7893 14.5304 15 14 15Z" stroke="#0B3621" stroke-width="2" stroke-linecap="round" stroke-linejoin="round"/>
<path d="M12 15V17C12 17.5304 11.7893 18.0391 11.4142 18.4142C11.0391 18.7893 10.5304 19 10 19H3C2.46957 19 1.96086 18.7893 1.58579 18.4142C1.21071 18.0391 1 17.5304 1 17V7C1 6.46957 1.21071 5.96086 1.58579 5.58579C1.96086 5.21071 2.46957 5 3 5H5" stroke="#0B3621" stroke-width="2" stroke-linecap="round" stroke-linejoin="round"/>
</svg>
