<svg width="18" height="22" viewBox="0 0 18 22" fill="none" xmlns="http://www.w3.org/2000/svg">
<path d="M15.75 8.37069C15.75 10.9499 14.4802 12.9352 12.5483 14.2417C12.0983 14.546 11.8733 14.6982 11.7622 14.8712C11.6512 15.0442 11.6133 15.2714 11.5376 15.7257L11.4787 16.0788C11.3457 16.877 11.2792 17.276 10.9994 17.513C10.7197 17.75 10.3151 17.75 9.5059 17.75H6.8944C6.08528 17.75 5.68069 17.75 5.40095 17.513C5.1212 17.276 5.05469 16.877 4.92166 16.0788L4.86281 15.7257C4.78734 15.2729 4.74961 15.0465 4.63968 14.8743C4.52976 14.7021 4.30428 14.548 3.85332 14.2397C1.9419 12.9332 0.75 10.9486 0.75 8.37069C0.75 4.1619 4.10786 0.75 8.25 0.75C8.7637 0.75 9.2653 0.80248 9.75 0.90244" stroke="#0B3621" stroke-width="1.5" stroke-linecap="round" stroke-linejoin="round"/>
<path d="M13.25 0.75L13.5079 1.44703C13.8461 2.36102 14.0152 2.81802 14.3486 3.15139C14.682 3.48477 15.139 3.65387 16.053 3.99208L16.75 4.25L16.053 4.50792C15.139 4.84613 14.682 5.01524 14.3486 5.34861C14.0152 5.68198 13.8461 6.13898 13.5079 7.05297L13.25 7.75L12.9921 7.05297C12.6539 6.13898 12.4848 5.68198 12.1514 5.34861C11.818 5.01524 11.361 4.84613 10.447 4.50792L9.75 4.25L10.447 3.99208C11.361 3.65387 11.818 3.48477 12.1514 3.15139C12.4848 2.81802 12.6539 2.36102 12.9921 1.44703L13.25 0.75Z" stroke="#0B3621" stroke-width="1.5" stroke-linejoin="round"/>
<path d="M10.25 17.75V18.75C10.25 19.6928 10.25 20.1642 9.9571 20.4571C9.6642 20.75 9.1928 20.75 8.25 20.75C7.3072 20.75 6.8358 20.75 6.54289 20.4571C6.25 20.1642 6.25 19.6928 6.25 18.75V17.75" stroke="#0B3621" stroke-width="1.5" stroke-linejoin="round"/>
</svg>
