<svg width="24" height="22" viewBox="0 0 24 22" fill="none" xmlns="http://www.w3.org/2000/svg">
<path d="M23.25 15.6607V14.0893H21.5995C21.4975 13.5886 21.2974 13.124 21.0242 12.712L22.1945 11.5415L21.0835 10.4304L19.913 11.6009C19.5009 11.3277 19.0363 11.1278 18.5357 11.0259V9.375H16.9642V11.0259C16.4636 11.1279 15.999 11.3278 15.587 11.6009L14.4165 10.4304L13.3054 11.5415L14.4756 12.712C14.2024 13.124 14.0025 13.5886 13.9005 14.0893H12.25V15.6607H13.9005C14.0025 16.1613 14.2024 16.6259 14.4756 17.0382L13.3054 18.2085L14.4165 19.3196L15.587 18.1491C15.999 18.4223 16.4636 18.6222 16.9642 18.7241V20.375H18.5357V18.7241C19.0363 18.6221 19.5009 18.4222 19.913 18.1491L21.0835 19.3196L22.1945 18.2085L21.0242 17.0382C21.2976 16.6259 21.4975 16.1613 21.5995 15.6607H23.25ZM17.75 17.2321C16.4483 17.2321 15.3928 16.1766 15.3928 14.875C15.3928 13.5733 16.4483 12.5178 17.75 12.5178C19.0517 12.5178 20.1071 13.5733 20.1071 14.875C20.1071 16.1766 19.0517 17.2321 17.75 17.2321Z" fill="#0B3621" stroke="#0B3621" stroke-width="0.75"/>
<path d="M15.25 3.99569C15.25 1.99939 13.6477 0.375 11.6786 0.375C10.4073 0.375 9.22214 1.06836 8.58529 2.18498C8.35664 2.58579 8.20964 3.01484 8.13607 3.48438C7.31979 2.89674 6.32521 2.54741 5.25 2.54741C2.49293 2.54741 0.25 4.82128 0.25 7.61638C0.25 9.57018 1.34771 11.2663 2.94907 12.112C2.17857 12.7768 1.67857 13.7543 1.67857 14.8578C1.67857 16.8541 3.28086 18.4784 5.25 18.4784C5.77457 18.4784 6.26893 18.3564 6.718 18.1498C6.91543 19.9582 8.41443 21.375 10.25 21.375C11.2036 21.375 12.1006 20.9984 12.7754 20.3149L11.7654 19.2903C11.3604 19.7008 10.8223 19.9267 10.2499 19.9267C9.06829 19.9267 8.10707 18.9523 8.10707 17.7543C8.10707 16.5564 9.06829 15.5819 10.2499 15.5819V14.1336C9.72536 14.1336 9.231 14.2556 8.78193 14.4623C8.67943 13.5234 8.22129 12.6958 7.55207 12.1115C9.15279 11.2654 10.2499 9.56981 10.2499 7.61645C10.2499 7.50986 10.24 7.40565 10.2336 7.30051C10.6764 7.50044 11.1634 7.61645 11.6785 7.61645C13.6476 7.61645 15.25 5.99199 15.25 3.99569ZM9.82207 2.90984C10.2044 2.2398 10.9158 1.82328 11.6786 1.82328C12.8602 1.82328 13.8214 2.79775 13.8214 3.99569C13.8214 5.19363 12.8602 6.1681 11.6786 6.1681C10.4969 6.1681 9.53571 5.19363 9.53571 3.99569H9.51479C9.53993 3.57844 9.63721 3.23375 9.82207 2.90984ZM7.39286 14.8578C7.39286 16.0557 6.43164 17.0302 5.25 17.0302C4.06836 17.0302 3.10714 16.0557 3.10714 14.8578C3.10714 13.6598 4.06836 12.6853 5.25 12.6853C6.43164 12.6853 7.39286 13.6598 7.39286 14.8578ZM5.25 11.2371C3.28086 11.2371 1.67857 9.61268 1.67857 7.61638C1.67857 5.62008 3.28086 3.99569 5.25 3.99569C7.21914 3.99569 8.82143 5.62008 8.82143 7.61638C8.82143 9.61268 7.21914 11.2371 5.25 11.2371Z" fill="#0B3621" stroke="#0B3621" stroke-width="0.75"/>
</svg>
