<svg width="24" height="24" viewBox="0 0 24 24" fill="none" xmlns="http://www.w3.org/2000/svg">
<g clip-path="url(#clip0_60_183)">
<path d="M17.2502 23.2499C17.243 23.2499 17.2361 23.2498 17.2289 23.2496C16.9213 23.241 16.6503 23.0454 16.5452 22.7562L14.1928 16.2873L12.6894 19.7954C12.5711 20.0712 12.3002 20.25 12 20.25H9V18.75H11.5055L13.5606 13.9545C13.682 13.6716 13.9715 13.4921 14.2711 13.5003C14.5787 13.5089 14.8497 13.7045 14.9548 13.9936L17.3072 20.4625L18.8106 16.9545C18.9289 16.6787 19.1998 16.4999 19.5 16.4999H22.5V17.9999H19.9946L17.9394 22.7953C17.8209 23.0716 17.5493 23.2499 17.2502 23.2499Z" fill="#0B3722" stroke="#0B3722" stroke-width="0.75"/>
<path d="M6.75 18.75H3V7.5H21V14.25H22.5V7.5C22.5 6.67275 21.8269 6 21 6H16.5V3C16.5 2.17275 15.8269 1.5 15 1.5H9C8.17275 1.5 7.5 2.17275 7.5 3V6H3C2.17275 6 1.5 6.67275 1.5 7.5V18.75C1.5 19.5769 2.17275 20.25 3 20.25H6.75V18.75ZM9 3H15V6H9V3Z" fill="#0B3722" stroke="#0B3722" stroke-width="0.75"/>
</g>
<defs>
<clipPath id="clip0_60_183">
<rect width="24" height="24" fill="white"/>
</clipPath>
</defs>
</svg>
